<?xml version="1.0" encoding="UTF-8"?>
<!DOCTYPE svg PUBLIC "-//W3C//DTD SVG 1.1//EN" "http://www.w3.org/Graphics/SVG/1.1/DTD/svg11.dtd">
<svg version="1.1" xmlns="http://www.w3.org/2000/svg" xmlns:xlink="http://www.w3.org/1999/xlink" x="0" y="0" width="100" height="80" viewBox="0, 0, 100, 80">
  <g id="translate">
    <g>
      <path d="M100,10 C100,4.48 95.52,0 90,0 L10,0 C4.48,0 0,4.48 0,10 L0,70 C0,75.52 4.48,80 10,80 L90,80 C95.52,80 100,75.52 100,70 L100,10 z M90,70 L10,70 L10,10 L90.015,10 L90,70 z" fill="#444444"/>
      <g>
        <path d="M61.551,39.107 C61.551,38.195 62.292,37.455 63.202,37.455 C64.112,37.455 64.853,38.195 64.853,39.107 C64.853,40.018 64.112,40.758 63.202,40.758 C62.292,40.758 61.551,40.018 61.551,39.107 z" fill="#EE0001"/>
        <path d="M43.387,25.897 C44.298,25.897 45.038,26.636 45.038,27.548 C45.038,28.459 44.298,29.199 43.387,29.199 C42.475,29.199 41.735,28.459 41.735,27.548 C41.735,26.636 42.475,25.897 43.387,25.897 z" fill="#444444"/>
        <path d="M51.643,25.897 C51.643,24.985 50.903,24.245 49.992,24.245 C49.08,24.245 48.34,24.985 48.34,25.897 C48.34,26.808 49.08,27.548 49.992,27.548 C50.903,27.548 51.643,26.808 51.643,25.897 z" fill="#444444"/>
        <path d="M40.084,32.502 C40.084,33.413 39.344,34.153 38.433,34.153 C37.521,34.153 36.782,33.413 36.782,32.502 C36.782,31.59 37.521,30.85 38.433,30.85 C39.344,30.85 40.084,31.59 40.084,32.502 z" fill="#444444"/>
        <path d="M35.13,39.107 C35.13,38.195 35.87,37.455 36.782,37.455 C37.693,37.455 38.433,38.195 38.433,39.107 C38.433,40.018 37.693,40.758 36.782,40.758 C35.87,40.758 35.13,40.018 35.13,39.107 z" fill="#444444"/>
        <path d="M58.248,27.548 C58.248,28.459 57.507,29.199 56.597,29.199 C55.687,29.199 54.946,28.459 54.946,27.548 C54.946,26.636 55.687,25.897 56.597,25.897 C57.507,25.897 58.248,26.636 58.248,27.548 z" fill="#444444"/>
        <path d="M69.447,30.064 C70.732,32.815 71.466,35.875 71.466,39.112 C71.466,50.968 61.856,60.578 50,60.578 C38.144,60.578 28.534,50.968 28.534,39.112 C28.534,27.256 38.144,17.645 50,17.645 C55.018,17.645 59.617,19.379 63.268,22.262 L59.178,25.391 C56.552,23.631 53.398,22.601 49.998,22.601 C40.882,22.601 33.486,29.997 33.486,39.113 C33.486,48.233 40.882,55.626 49.998,55.626 C59.115,55.626 66.511,48.233 66.511,39.113 C66.511,37.584 66.285,36.111 65.898,34.708 L69.445,30.066 z" fill="#DA2C41"/>
        <path d="M49.998,36.665 C46.821,36.665 44.245,39.242 44.245,42.418 C44.245,45.593 46.823,48.171 49.998,48.171 C53.174,48.171 55.751,45.593 55.751,42.418 C55.751,41.978 55.694,41.554 55.596,41.144 C59.809,36.245 66.329,28.606 69.812,24.254 C71.006,22.764 69.693,21.354 68.161,22.602 C63.765,26.182 56.172,32.649 51.291,36.823 C50.875,36.726 50.441,36.663 49.997,36.663 z" fill="#444444"/>
        <path d="M50.056,39.097 C48.363,39.097 46.991,40.47 46.991,42.162 C46.991,43.854 48.364,45.227 50.056,45.227 C51.748,45.227 53.121,43.854 53.121,42.162 C53.121,41.928 53.09,41.702 53.038,41.484 C55.283,38.873 58.757,34.804 60.612,32.485 C61.248,31.691 60.549,30.94 59.732,31.605 C57.391,33.512 53.345,36.957 50.745,39.181 C50.523,39.129 50.292,39.096 50.055,39.096 z" fill="#AAAAAA"/>
      </g>
    </g>
  </g>
</svg>
